<svg width="7" height="5" viewBox="0 0 7 5" fill="none" xmlns="http://www.w3.org/2000/svg">
<path d="M3.5 4.07275C3.29492 4.07275 3.10579 3.9873 2.93262 3.81641L0.468262 1.29736C0.40446 1.23128 0.356608 1.16064 0.324707 1.08545C0.295085 1.01025 0.280273 0.927083 0.280273 0.835938C0.280273 0.712891 0.309896 0.600098 0.369141 0.497559C0.430664 0.392741 0.511556 0.31071 0.611816 0.251465C0.714355 0.189941 0.826009 0.15918 0.946777 0.15918C1.13363 0.15918 1.29997 0.233236 1.4458 0.381348L3.61963 2.63037H3.38721L5.5542 0.381348C5.69548 0.233236 5.85954 0.15918 6.04639 0.15918C6.16943 0.15918 6.28109 0.189941 6.38135 0.251465C6.48389 0.31071 6.56478 0.392741 6.62402 0.497559C6.68555 0.600098 6.71631 0.712891 6.71631 0.835938C6.71631 1.01823 6.65251 1.17204 6.5249 1.29736L4.06396 3.81641C3.9751 3.90527 3.88509 3.97021 3.79395 4.01123C3.70508 4.05225 3.6071 4.07275 3.5 4.07275Z" fill="black" fill-opacity="0.85"/>
</svg>
