<svg width="18" height="18" viewBox="0 0 18 18" fill="none" xmlns="http://www.w3.org/2000/svg">
<path d="M0 4.8C0 3.11984 0 2.27976 0.32698 1.63803C0.614601 1.07354 1.07354 0.614601 1.63803 0.32698C2.27976 0 3.11984 0 4.8 0H13.2C14.8802 0 15.7202 0 16.362 0.32698C16.9265 0.614601 17.3854 1.07354 17.673 1.63803C18 2.27976 18 3.11984 18 4.8V13.2C18 14.8802 18 15.7202 17.673 16.362C17.3854 16.9265 16.9265 17.3854 16.362 17.673C15.7202 18 14.8802 18 13.2 18H4.8C3.11984 18 2.27976 18 1.63803 17.673C1.07354 17.3854 0.614601 16.9265 0.32698 16.362C0 15.7202 0 14.8802 0 13.2V4.8Z" fill="#2E3C55"/>
<path d="M14.9424 2.99266C15.4906 3.54089 15.4906 4.42975 14.9424 4.97798L6.03556 13.8848C4.67412 14.8209 3.9934 15.289 3.69035 15.2932C3.13595 15.3008 2.68117 14.8559 2.6766 14.3015C2.67411 13.9984 3.13282 13.2988 4.05024 11.8995L12.9571 2.99266C13.5053 2.44443 14.3942 2.44443 14.9424 2.99266Z" fill="white"/>
</svg>
